<?xml version="1.0" standalone="no"?>
<svg viewBox="0 0 200 200" xmlns="http://www.w3.org/2000/svg">
  <path fill="#FF0066" d="M40.3,-69.3C48.5,-65.1,48.8,-46.7,50.3,-32.8C51.7,-18.9,54.3,-9.5,54.5,0.1C54.6,9.6,52.3,19.2,50.4,32.5C48.6,45.7,47.2,62.5,38.9,73.8C30.6,85,15.3,90.6,2.3,86.7C-10.7,82.7,-21.4,69.2,-29.5,57.8C-37.7,46.5,-43.2,37.3,-49.6,28C-56,18.8,-63.2,9.4,-59,2.4C-54.8,-4.5,-39.1,-9,-31.8,-16.7C-24.5,-24.4,-25.6,-35.4,-21.7,-42C-17.8,-48.7,-8.9,-51.1,3.6,-57.3C16.1,-63.4,32.1,-73.4,40.3,-69.3Z" transform="translate(100 100)" />
</svg>
